<svg xmlns="http://www.w3.org/2000/svg" xmlns:xlink="http://www.w3.org/1999/xlink" width="500" zoomAndPan="magnify" viewBox="0 0 375 374.999991" height="500" preserveAspectRatio="xMidYMid meet" version="1.0"><defs><g/><clipPath id="2bf992e670"><path d="M 34.09375 29 L 264 29 L 264 302.652344 L 34.09375 302.652344 Z M 34.09375 29 " clip-rule="nonzero"/></clipPath><clipPath id="3fb7a2f4b2"><path d="M 282 125 L 303.058594 125 L 303.058594 157 L 282 157 Z M 282 125 " clip-rule="nonzero"/></clipPath><clipPath id="f8535fc5a7"><path d="M 119.882812 252 L 130 252 L 130 257 L 119.882812 257 Z M 119.882812 252 " clip-rule="nonzero"/></clipPath><clipPath id="f4f94cc343"><path d="M 170 252 L 179.78125 252 L 179.78125 257 L 170 257 Z M 170 252 " clip-rule="nonzero"/></clipPath><clipPath id="dcf36a772b"><path d="M 147 224.894531 L 152 224.894531 L 152 235 L 147 235 Z M 147 224.894531 " clip-rule="nonzero"/></clipPath><clipPath id="89cd7ef12c"><path d="M 140 273 L 159 273 L 159 284.796875 L 140 284.796875 Z M 140 273 " clip-rule="nonzero"/></clipPath></defs><g clip-path="url(#2bf992e670)"><path fill="#333333" d="M 239.808594 204.71875 C 236.609375 196.183594 230.425781 189.105469 222.402344 184.789062 C 222.398438 184.785156 222.390625 184.78125 222.382812 184.777344 L 186.339844 165.835938 C 190.675781 158.875 192.960938 150.914062 192.96875 142.628906 C 192.980469 142.386719 192.992188 142.132812 193.003906 141.878906 C 195.554688 141.53125 197.832031 140.582031 199.796875 139.046875 C 202.101562 137.238281 203.910156 134.664062 205.167969 131.394531 C 207.21875 126.117188 207.921875 117.855469 204.632812 112.179688 C 204.398438 111.777344 204.148438 111.394531 203.882812 111.03125 C 205.265625 110.949219 206.640625 110.839844 208.007812 110.691406 C 208.722656 110.613281 209.367188 110.21875 209.765625 109.617188 C 210.164062 109.015625 210.269531 108.265625 210.0625 107.578125 C 210.011719 107.417969 208.855469 103.660156 206.230469 98.40625 C 204.53125 95.003906 201.957031 90.492188 198.425781 85.917969 L 207.195312 87.964844 C 207.945312 88.140625 208.734375 87.945312 209.320312 87.445312 C 209.90625 86.941406 210.21875 86.191406 210.160156 85.421875 C 210.144531 85.253906 209.824219 81.242188 208.128906 75.921875 C 205.871094 68.851562 202.214844 62.765625 197.550781 58.332031 C 192.417969 53.453125 185.28125 50.9375 179.980469 49.664062 L 189.722656 44.488281 C 190.535156 44.058594 191.03125 43.203125 191.007812 42.285156 C 190.980469 41.367188 190.441406 40.542969 189.605469 40.15625 C 189.351562 40.035156 183.222656 37.21875 174.152344 35.941406 C 168.824219 35.191406 163.566406 35.128906 158.527344 35.757812 C 153.90625 36.332031 149.460938 37.492188 145.261719 39.214844 L 146.78125 32.234375 C 146.929688 31.535156 146.765625 30.804688 146.332031 30.238281 C 145.894531 29.675781 145.230469 29.332031 144.519531 29.300781 C 144.195312 29.285156 136.535156 28.992188 127.199219 32.144531 C 121.695312 34.003906 116.742188 36.679688 112.472656 40.101562 C 107.125 44.386719 102.863281 49.84375 99.804688 56.324219 C 94.152344 68.289062 91.847656 80.1875 92.949219 91.6875 C 93.695312 99.476562 95.828125 105.566406 97.5625 109.816406 C 95.140625 110.710938 93.300781 112.21875 92.066406 114.332031 C 88.871094 119.804688 90.980469 127.367188 92.527344 131.394531 C 93.796875 134.667969 95.609375 137.242188 97.914062 139.046875 C 99.878906 140.585938 102.15625 141.535156 104.703125 141.878906 C 104.71875 142.132812 104.730469 142.390625 104.742188 142.636719 C 104.753906 150.929688 107.042969 158.902344 111.386719 165.863281 L 75.402344 184.78125 C 75.394531 184.78125 75.386719 184.785156 75.378906 184.789062 C 67.355469 189.105469 61.175781 196.183594 57.972656 204.722656 L 36.621094 261.898438 C 34.410156 267.8125 34.125 274.15625 35.789062 280.246094 C 37.453125 286.335938 40.929688 291.648438 45.84375 295.605469 L 51.320312 300.019531 C 53.425781 301.71875 56.078125 302.652344 58.785156 302.652344 L 239 302.652344 C 241.707031 302.652344 244.355469 301.71875 246.464844 300.019531 L 251.941406 295.605469 C 256.855469 291.644531 260.335938 286.335938 262.003906 280.246094 C 263.667969 274.152344 263.378906 267.808594 261.164062 261.898438 Z M 104.183594 58.390625 C 109.140625 47.894531 117.351562 40.625 128.582031 36.789062 C 133.808594 35.003906 138.515625 34.410156 141.390625 34.21875 L 139.488281 42.976562 C 139.289062 43.898438 139.640625 44.851562 140.394531 45.421875 C 141.148438 45.992188 142.160156 46.070312 142.992188 45.625 C 151.992188 40.832031 162.195312 39.179688 173.320312 40.714844 C 177.027344 41.226562 180.222656 42.027344 182.644531 42.765625 L 171.457031 48.710938 C 170.507812 49.214844 170.007812 50.285156 170.222656 51.339844 C 170.441406 52.390625 171.328125 53.175781 172.398438 53.261719 C 172.539062 53.273438 186.488281 54.496094 194.210938 61.839844 C 199.328125 66.703125 202.070312 72.914062 203.472656 77.269531 C 204.109375 79.238281 204.535156 81.019531 204.816406 82.4375 L 192.238281 79.503906 C 191.191406 79.257812 190.105469 79.738281 189.578125 80.675781 C 189.050781 81.617188 189.207031 82.792969 189.964844 83.558594 C 195.699219 89.386719 199.59375 95.972656 201.847656 100.472656 C 202.972656 102.710938 203.8125 104.671875 204.398438 106.148438 C 183.132812 107.585938 163.488281 100.0625 150.507812 93.308594 C 135.648438 85.578125 126.027344 77.140625 125.933594 77.054688 C 125.417969 76.601562 124.738281 76.386719 124.058594 76.464844 C 123.378906 76.539062 122.761719 76.902344 122.363281 77.457031 L 101.464844 106.515625 C 97.921875 97.289062 93.667969 80.65625 104.183594 58.390625 Z M 109.585938 142.578125 C 109.585938 142.539062 109.585938 142.5 109.582031 142.457031 C 109.582031 142.429688 109.546875 141.695312 109.5 140.949219 C 109.472656 140.5 109.449219 140.136719 109.425781 139.875 C 109.414062 139.6875 109.398438 139.546875 109.382812 139.433594 C 109.191406 137.890625 107.988281 137.1875 106.953125 137.1875 C 102.316406 137.1875 98.980469 134.648438 97.042969 129.652344 C 94.980469 124.269531 94.683594 119.457031 96.246094 116.773438 C 97.179688 115.179688 98.8125 114.226562 101.242188 113.867188 C 101.953125 113.761719 102.546875 113.355469 102.910156 112.796875 L 124.773438 82.394531 C 128.421875 85.335938 136.710938 91.578125 148.15625 97.542969 C 157.1875 102.25 166.304688 105.796875 175.257812 108.082031 C 182.042969 109.8125 188.746094 110.820312 195.296875 111.09375 C 197.605469 111.472656 199.289062 112.621094 200.441406 114.609375 C 202.820312 118.710938 202.347656 125.277344 200.652344 129.648438 C 198.726562 134.648438 195.394531 137.1875 190.742188 137.1875 C 189.703125 137.1875 188.496094 137.894531 188.3125 139.445312 C 188.296875 139.5625 188.285156 139.703125 188.269531 139.886719 C 188.25 140.152344 188.226562 140.511719 188.203125 140.960938 C 188.164062 141.707031 188.128906 142.441406 188.128906 142.472656 C 188.128906 142.507812 188.125 142.542969 188.125 142.578125 C 188.125 150.804688 185.609375 158.679688 180.84375 165.355469 C 179.402344 167.382812 177.738281 169.296875 175.902344 171.039062 C 175.898438 171.046875 175.890625 171.050781 175.882812 171.058594 C 175.402344 171.523438 174.898438 171.980469 174.289062 172.488281 C 174.285156 172.492188 174.277344 172.496094 174.273438 172.5 C 167.195312 178.53125 158.167969 181.851562 148.855469 181.851562 C 139.53125 181.851562 130.503906 178.53125 123.441406 172.503906 C 123.433594 172.5 123.429688 172.492188 123.421875 172.488281 C 122.816406 171.980469 122.316406 171.546875 121.851562 171.082031 C 121.839844 171.070312 121.824219 171.054688 121.808594 171.039062 C 119.992188 169.3125 118.347656 167.421875 116.914062 165.414062 C 116.882812 165.371094 116.855469 165.332031 116.824219 165.289062 C 112.089844 158.628906 109.585938 150.777344 109.585938 142.578125 Z M 220.644531 263.644531 C 220.640625 263.738281 220.640625 263.832031 220.644531 263.925781 L 220.644531 297.808594 L 77.363281 297.808594 L 77.363281 215.371094 C 77.363281 211.480469 80.53125 208.316406 84.421875 208.316406 L 213.589844 208.316406 C 217.480469 208.316406 220.644531 211.480469 220.644531 215.371094 Z M 248.902344 291.835938 L 243.425781 296.246094 C 242.175781 297.253906 240.605469 297.808594 239 297.808594 L 225.488281 297.808594 L 225.488281 265.144531 L 237.878906 257.632812 C 239.019531 256.941406 239.386719 255.449219 238.691406 254.308594 C 238 253.164062 236.511719 252.796875 235.367188 253.492188 L 225.488281 259.484375 L 225.488281 215.371094 C 225.488281 208.808594 220.148438 203.472656 213.589844 203.472656 L 84.421875 203.472656 C 77.859375 203.472656 72.523438 208.808594 72.523438 215.371094 L 72.523438 259.484375 L 62.636719 253.492188 C 61.492188 252.796875 60.003906 253.164062 59.3125 254.308594 C 58.617188 255.449219 58.984375 256.9375 60.125 257.632812 L 72.523438 265.148438 L 72.523438 297.808594 L 58.785156 297.808594 C 57.179688 297.808594 55.609375 297.253906 54.359375 296.246094 L 48.882812 291.835938 C 40.480469 285.066406 37.375 273.71875 41.15625 263.59375 L 62.507812 206.417969 C 65.296875 198.984375 70.679688 192.820312 77.664062 189.058594 L 114.195312 169.859375 C 115.492188 171.503906 116.917969 173.070312 118.453125 174.53125 C 119.066406 175.140625 119.707031 175.691406 120.308594 176.195312 C 124.199219 179.515625 128.597656 182.109375 133.375 183.898438 C 138.316406 185.753906 143.527344 186.695312 148.855469 186.695312 C 154.179688 186.695312 159.382812 185.753906 164.324219 183.898438 C 169.101562 182.109375 173.503906 179.515625 177.40625 176.195312 C 178.101562 175.613281 178.6875 175.085938 179.25 174.539062 C 180.796875 173.070312 182.234375 171.492188 183.539062 169.832031 L 220.117188 189.058594 C 227.105469 192.820312 232.488281 198.988281 235.273438 206.417969 L 256.628906 263.597656 C 260.417969 273.710938 257.316406 285.058594 248.902344 291.835938 Z M 248.902344 291.835938 " fill-opacity="1" fill-rule="nonzero"/></g><path fill="#333333" d="M 135.417969 134.082031 C 138.902344 134.082031 141.992188 131.734375 142.925781 128.375 L 145.894531 117.695312 L 151.878906 117.695312 L 155.363281 128.75 C 155.367188 128.765625 155.375 128.785156 155.382812 128.804688 C 156.457031 131.960938 159.421875 134.082031 162.757812 134.082031 L 178.375 134.082031 C 181.863281 134.082031 184.949219 131.734375 185.886719 128.375 L 189.347656 115.921875 C 189.546875 115.191406 189.398438 114.410156 188.941406 113.808594 C 188.484375 113.207031 187.769531 112.851562 187.011719 112.851562 L 153.710938 112.851562 C 153.675781 112.851562 153.636719 112.851562 153.601562 112.851562 L 144.105469 112.851562 C 144.070312 112.851562 144.035156 112.851562 143.996094 112.851562 L 110.695312 112.851562 C 109.925781 112.851562 109.199219 113.21875 108.746094 113.84375 C 108.289062 114.464844 108.15625 115.265625 108.386719 116 L 112.402344 128.75 C 112.410156 128.765625 112.414062 128.785156 112.421875 128.804688 C 113.5 131.960938 116.460938 134.082031 119.796875 134.082031 Z M 183.828125 117.695312 L 181.21875 127.078125 C 180.867188 128.347656 179.695312 129.238281 178.375 129.238281 L 162.757812 129.238281 C 161.503906 129.238281 160.386719 128.445312 159.972656 127.261719 L 156.957031 117.695312 Z M 117.011719 127.261719 L 114 117.695312 L 140.867188 117.695312 L 138.261719 127.078125 C 137.90625 128.347656 136.738281 129.238281 135.417969 129.238281 L 119.796875 129.238281 C 118.542969 129.238281 117.425781 128.445312 117.011719 127.261719 Z M 117.011719 127.261719 " fill-opacity="1" fill-rule="nonzero"/><g clip-path="url(#3fb7a2f4b2)"><path fill="#333333" d="M 302.167969 139.277344 L 286.453125 126.199219 C 285.425781 125.34375 283.898438 125.484375 283.042969 126.511719 C 282.1875 127.539062 282.328125 129.066406 283.355469 129.921875 L 296.832031 141.136719 L 283.355469 152.351562 C 282.328125 153.207031 282.1875 154.734375 283.042969 155.761719 C 283.523438 156.339844 284.210938 156.636719 284.90625 156.636719 C 285.453125 156.636719 286 156.453125 286.453125 156.074219 L 302.167969 142.996094 C 302.71875 142.539062 303.039062 141.855469 303.039062 141.136719 C 303.039062 140.417969 302.71875 139.734375 302.167969 139.277344 Z M 302.167969 139.277344 " fill-opacity="1" fill-rule="nonzero"/></g><path fill="#333333" d="M 237.203125 142.996094 L 252.917969 156.074219 C 253.371094 156.453125 253.917969 156.636719 254.464844 156.636719 C 255.160156 156.636719 255.847656 156.339844 256.328125 155.761719 C 257.183594 154.734375 257.042969 153.207031 256.015625 152.351562 L 242.539062 141.136719 L 256.015625 129.921875 C 257.042969 129.066406 257.183594 127.539062 256.328125 126.511719 C 255.472656 125.484375 253.945312 125.34375 252.917969 126.199219 L 237.203125 139.273438 C 236.652344 139.734375 236.332031 140.417969 236.332031 141.136719 C 236.332031 141.855469 236.652344 142.539062 237.203125 142.996094 Z M 237.203125 142.996094 " fill-opacity="1" fill-rule="nonzero"/><path fill="#333333" d="M 274.046875 121.113281 C 272.746094 120.796875 271.4375 121.59375 271.121094 122.890625 L 262.441406 158.386719 C 262.121094 159.683594 262.917969 160.996094 264.214844 161.3125 C 264.410156 161.359375 264.601562 161.382812 264.792969 161.382812 C 265.882812 161.382812 266.875 160.640625 267.144531 159.535156 L 275.824219 124.042969 C 276.140625 122.742188 275.34375 121.433594 274.046875 121.113281 Z M 274.046875 121.113281 " fill-opacity="1" fill-rule="nonzero"/><g clip-path="url(#f8535fc5a7)"><path fill="#333333" d="M 121.84375 256.980469 L 127.445312 256.980469 C 128.605469 256.980469 129.550781 256.039062 129.550781 254.878906 C 129.550781 253.71875 128.605469 252.777344 127.445312 252.777344 L 121.84375 252.777344 C 120.683594 252.777344 119.742188 253.71875 119.742188 254.878906 C 119.742188 256.039062 120.683594 256.980469 121.84375 256.980469 Z M 121.84375 256.980469 " fill-opacity="1" fill-rule="evenodd"/></g><g clip-path="url(#f4f94cc343)"><path fill="#333333" d="M 177.886719 252.777344 L 172.285156 252.777344 C 171.125 252.777344 170.183594 253.71875 170.183594 254.878906 C 170.183594 256.039062 171.125 256.980469 172.285156 256.980469 L 177.886719 256.980469 C 179.046875 256.980469 179.988281 256.039062 179.988281 254.878906 C 179.988281 253.71875 179.046875 252.777344 177.886719 252.777344 Z M 177.886719 252.777344 " fill-opacity="1" fill-rule="evenodd"/></g><path fill="#333333" d="M 168.195312 233.582031 L 164.234375 237.542969 C 163.410156 238.363281 163.410156 239.695312 164.234375 240.511719 C 165.050781 241.335938 166.382812 241.335938 167.203125 240.511719 L 171.164062 236.550781 C 171.988281 235.734375 171.988281 234.398438 171.164062 233.582031 C 170.347656 232.757812 169.011719 232.757812 168.195312 233.582031 Z M 168.195312 233.582031 " fill-opacity="1" fill-rule="evenodd"/><g clip-path="url(#dcf36a772b)"><path fill="#333333" d="M 147.765625 226.859375 L 147.765625 232.460938 C 147.765625 233.621094 148.707031 234.5625 149.867188 234.5625 C 151.027344 234.5625 151.96875 233.621094 151.96875 232.460938 L 151.96875 226.859375 C 151.96875 225.699219 151.027344 224.757812 149.867188 224.757812 C 148.707031 224.757812 147.765625 225.699219 147.765625 226.859375 Z M 147.765625 226.859375 " fill-opacity="1" fill-rule="evenodd"/></g><path fill="#333333" d="M 128.566406 236.550781 L 132.527344 240.511719 C 133.347656 241.335938 134.679688 241.335938 135.5 240.511719 C 136.320312 239.695312 136.320312 238.363281 135.5 237.542969 L 131.535156 233.582031 C 130.71875 232.757812 129.382812 232.757812 128.566406 233.582031 C 127.746094 234.398438 127.746094 235.734375 128.566406 236.550781 Z M 128.566406 236.550781 " fill-opacity="1" fill-rule="evenodd"/><path fill="#333333" d="M 139.355469 273.898438 L 139.355469 274.496094 C 139.355469 276.429688 140.925781 278 142.859375 278 C 146.027344 278 153.703125 278 156.871094 278 C 158.804688 278 160.375 276.429688 160.375 274.496094 C 160.375 274.378906 160.371094 274.25 160.386719 274.117188 C 160.390625 274.046875 160.394531 273.972656 160.394531 273.898438 C 160.394531 271.097656 161.386719 268.382812 163.191406 266.238281 C 165.800781 263.179688 167.378906 259.214844 167.378906 254.878906 C 167.378906 245.214844 159.53125 237.367188 149.867188 237.367188 C 140.199219 237.367188 132.351562 245.214844 132.351562 254.878906 C 132.351562 259.214844 133.929688 263.183594 136.558594 266.230469 C 138.363281 268.375 139.355469 271.09375 139.355469 273.898438 Z M 156.191406 273.796875 L 143.558594 273.796875 C 143.535156 270.03125 142.191406 266.394531 139.765625 263.515625 C 139.761719 263.507812 139.753906 263.503906 139.75 263.496094 C 137.75 261.1875 136.554688 258.171875 136.554688 254.878906 C 136.554688 247.53125 142.519531 241.570312 149.867188 241.570312 C 157.214844 241.570312 163.175781 247.53125 163.175781 254.878906 C 163.175781 258.175781 161.976562 261.195312 159.988281 263.519531 C 159.988281 263.523438 159.980469 263.527344 159.980469 263.527344 C 157.558594 266.402344 156.21875 270.039062 156.191406 273.796875 Z M 156.191406 273.796875 " fill-opacity="1" fill-rule="evenodd"/><g clip-path="url(#89cd7ef12c)"><path fill="#333333" d="M 158.972656 275.898438 C 158.972656 274.738281 158.03125 273.796875 156.871094 273.796875 L 142.859375 273.796875 C 141.699219 273.796875 140.757812 274.738281 140.757812 275.898438 L 140.757812 280.101562 C 140.757812 281.402344 141.273438 282.648438 142.195312 283.566406 C 143.113281 284.488281 144.363281 285.003906 145.660156 285.003906 C 148.101562 285.003906 151.628906 285.003906 154.070312 285.003906 C 155.371094 285.003906 156.617188 284.488281 157.535156 283.566406 C 158.457031 282.648438 158.972656 281.402344 158.972656 280.101562 C 158.972656 278.699219 158.972656 275.898438 158.972656 275.898438 Z M 154.769531 278 L 154.769531 280.101562 C 154.769531 280.285156 154.695312 280.464844 154.566406 280.597656 C 154.433594 280.730469 154.253906 280.800781 154.070312 280.800781 L 145.660156 280.800781 C 145.476562 280.800781 145.296875 280.730469 145.167969 280.597656 C 145.035156 280.464844 144.960938 280.285156 144.960938 280.101562 C 144.960938 280.101562 144.960938 278 144.960938 278 Z M 154.769531 278 " fill-opacity="1" fill-rule="evenodd"/></g><path fill="#333333" d="M 149.867188 248.574219 C 153.347656 248.574219 156.171875 251.398438 156.171875 254.878906 C 156.171875 256.039062 157.113281 256.980469 158.273438 256.980469 C 159.433594 256.980469 160.375 256.039062 160.375 254.878906 C 160.375 249.078125 155.667969 244.371094 149.867188 244.371094 C 148.707031 244.371094 147.765625 245.3125 147.765625 246.472656 C 147.765625 247.632812 148.707031 248.574219 149.867188 248.574219 Z M 149.867188 248.574219 " fill-opacity="1" fill-rule="evenodd"/><path stroke-linecap="butt" transform="matrix(1.247906, -0.307738, 0.307738, 1.247906, 171.53346, 282.030332)" fill="none" stroke-linejoin="miter" d="M 57.166828 -2.97409 C 57.370112 -3.024128 57.63318 -3.050031 57.952354 -3.049578 C 58.206489 -3.102727 58.494619 -3.128711 58.813792 -3.128257 L 59.831015 -3.127826 C 61.083374 -3.128885 62.597827 -2.999575 64.375101 -2.742848 C 66.11555 -2.47642 67.794994 -1.924532 69.418568 -1.09531 C 70.991331 -0.250446 72.352312 0.983556 73.501511 2.606697 C 74.653661 4.230566 75.254722 6.400928 75.306188 9.124411 C 75.305942 9.277732 75.331759 9.744245 75.383641 10.523949 C 75.432044 11.36853 75.433596 12.314247 75.381666 13.362594 C 75.329897 14.461064 75.170764 15.639487 74.902773 16.891232 C 74.597189 18.143098 74.103401 19.32038 73.425816 20.417904 C 72.68485 21.518579 71.712672 22.4652 70.512235 23.258493 C 69.309534 24.035577 67.762445 24.533658 65.870966 24.752737 L 65.871206 24.827922 C 67.495085 24.830835 68.913129 25.008366 70.126835 25.367144 C 71.278087 25.788778 72.269709 26.311907 73.100974 26.939482 C 73.945537 27.576598 74.628168 28.286469 75.152544 29.066873 C 75.623845 29.846709 75.989846 30.660053 76.245373 31.502497 C 76.921057 33.497186 77.158236 35.746846 76.953957 38.25075 C 76.9553 40.974394 76.431774 43.224277 75.383379 45.000398 C 74.334297 46.792001 72.945678 48.20876 71.221969 49.258033 C 69.49531 50.306579 67.534615 51.009428 65.333256 51.368076 C 63.135049 51.790106 60.879407 52.000767 58.566331 52.000059 L 36.188188 52.000157 L 35.248699 -1.805659 Z M 60.541196 36.604207 C 60.593447 35.656107 60.483884 34.818355 60.21546 34.091679 C 60.010011 33.46505 59.644771 32.889793 59.122693 32.366636 C 58.548268 31.83996 57.707858 31.579498 56.609548 31.577853 L 56.055239 31.578889 L 50.091469 31.886183 L 50.569382 42.565483 L 56.053541 42.337121 C 57.678147 42.337083 58.834396 41.786442 59.52524 40.685927 C 60.202825 39.588403 60.566536 38.303918 60.616375 36.832473 Z M 59.754777 13.822429 C 59.80634 12.88981 59.696778 12.052059 59.429041 11.309901 C 59.223592 10.683272 58.861303 10.108742 58.336274 9.584857 C 57.761121 9.061133 56.924389 8.798448 55.822401 8.799025 L 55.268092 8.800062 L 49.302907 9.125788 L 49.783771 19.805815 L 55.267122 19.555342 C 56.841604 19.555465 57.966083 18.981338 58.641284 17.830012 C 59.332128 16.729497 59.728378 15.478079 59.830764 14.072805 Z M 59.754777 13.822429 " stroke="#004703" stroke-width="5.89089" stroke-opacity="1" stroke-miterlimit="4"/><path stroke-linecap="butt" transform="matrix(1.247906, -0.307738, 0.307738, 1.247906, 171.53346, 282.030332)" fill="none" stroke-linejoin="miter" d="M 107.908224 52.000672 L 107.909907 44.923604 C 107.906938 41.000675 107.460872 38.201794 106.565809 36.525505 C 105.619894 34.852326 103.920367 34.013765 101.4665 34.01277 C 99.945092 34.013215 97.958093 34.327688 95.50328 34.952509 L 95.503275 51.99982 L 80.180818 51.999457 L 80.180669 -2.188244 L 105.473066 -2.975324 C 107.876809 -2.974169 110.075646 -2.738693 112.06885 -2.265944 C 113.998832 -1.73992 115.699006 -0.929371 117.171596 0.169382 C 118.587433 1.269791 119.713193 2.708728 120.545923 4.485464 C 121.388233 6.261433 121.913381 8.434986 122.115464 11.004667 L 122.193281 13.900552 C 122.19352 15.587813 121.99068 17.159259 121.581085 18.617113 C 121.159159 20.137661 120.500768 21.474687 119.60369 22.624512 C 118.709562 23.775064 117.586166 24.687524 116.229096 25.367065 C 114.8103 26.106511 113.162803 26.554789 111.284382 26.708223 C 114.210496 26.863238 116.485681 27.461869 118.108481 28.510017 C 119.734232 29.558893 120.967956 31.105841 121.809653 33.15086 C 122.588856 35.246202 123.089537 37.836305 123.306523 40.91676 C 123.510451 44.062862 123.613672 47.756963 123.61251 52.001288 Z M 94.793664 10.602637 L 94.793916 24.043969 L 100.832378 24.043077 C 101.101428 24.043691 101.499304 23.991556 102.022329 23.888898 C 102.544786 23.839314 103.069754 23.652618 103.592825 23.333984 C 104.106476 23.066241 104.570898 22.617325 104.994215 21.992369 C 105.364618 21.41697 105.549327 20.629875 105.551294 19.631812 L 105.550957 13.997289 C 105.497192 12.628634 105.160825 11.631653 104.533005 11.004164 C 103.907568 10.430476 103.070756 10.142729 102.02257 10.140923 Z M 94.793664 10.602637 " stroke="#004703" stroke-width="5.89089" stroke-opacity="1" stroke-miterlimit="4"/><g fill="#388e3c" fill-opacity="1"><g transform="translate(228.580216, 336.799745)"><g><path d="M 13.359375 -76.078125 C 13.609375 -76.203125 13.929688 -76.3125 14.328125 -76.40625 C 14.628906 -76.5625 14.976562 -76.6875 15.375 -76.78125 L 16.65625 -77.109375 C 18.21875 -77.492188 20.15625 -77.789062 22.46875 -78 C 24.695312 -78.207031 26.953125 -78.039062 29.234375 -77.5 C 31.453125 -76.9375 33.53125 -75.820312 35.46875 -74.15625 C 37.40625 -72.488281 38.820312 -69.957031 39.71875 -66.5625 C 39.769531 -66.363281 39.945312 -65.785156 40.25 -64.828125 C 40.582031 -63.796875 40.875 -62.617188 41.125 -61.296875 C 41.394531 -59.898438 41.566406 -58.382812 41.640625 -56.75 C 41.640625 -55.070312 41.378906 -53.441406 40.859375 -51.859375 C 40.285156 -50.265625 39.367188 -48.796875 38.109375 -47.453125 C 36.835938 -46.097656 35.0625 -45.003906 32.78125 -44.171875 L 32.8125 -44.078125 C 34.832031 -44.578125 36.65625 -44.773438 38.28125 -44.671875 C 39.84375 -44.515625 41.242188 -44.171875 42.484375 -43.640625 C 43.710938 -43.117188 44.773438 -42.445312 45.671875 -41.625 C 46.492188 -40.789062 47.195312 -39.890625 47.78125 -38.921875 C 49.25 -36.648438 50.242188 -33.914062 50.765625 -30.71875 C 51.609375 -27.320312 51.640625 -24.347656 50.859375 -21.796875 C 50.109375 -19.253906 48.816406 -17.0625 46.984375 -15.21875 C 45.148438 -13.382812 42.914062 -11.898438 40.28125 -10.765625 C 37.664062 -9.566406 34.925781 -8.613281 32.0625 -7.90625 L 4.109375 -1.015625 L -13.625 -67.859375 Z M 29.765625 -27.703125 C 29.546875 -28.910156 29.15625 -29.925781 28.59375 -30.75 C 28.144531 -31.476562 27.507812 -32.085938 26.6875 -32.578125 C 25.8125 -33.054688 24.6875 -33.125 23.3125 -32.78125 L 22.640625 -32.609375 L 15.28125 -30.390625 L 19.15625 -17.1875 L 25.953125 -19.1875 C 27.972656 -19.6875 29.234375 -20.722656 29.734375 -22.296875 C 30.253906 -23.878906 30.320312 -25.597656 29.9375 -27.453125 Z M 21.78125 -55.90625 C 21.550781 -57.09375 21.160156 -58.109375 20.609375 -58.953125 C 20.148438 -59.660156 19.515625 -60.257812 18.703125 -60.75 C 17.816406 -61.238281 16.691406 -61.316406 15.328125 -60.984375 L 14.625 -60.8125 L 7.28125 -58.5625 L 11.171875 -45.390625 L 17.9375 -47.359375 C 19.90625 -47.835938 21.132812 -48.90625 21.625 -50.5625 C 22.144531 -52.132812 22.253906 -53.828125 21.953125 -55.640625 Z M 21.78125 -55.90625 "/></g></g></g><g fill="#ffc108" fill-opacity="1"><g transform="translate(285.632905, 322.730364)"><g><path d="M 36.5625 -9.015625 L 34.390625 -17.828125 C 33.179688 -22.734375 31.757812 -26.097656 30.125 -27.921875 C 28.4375 -29.722656 26.054688 -30.242188 22.984375 -29.484375 C 21.097656 -29.015625 18.710938 -28.007812 15.828125 -26.46875 L 21.078125 -5.203125 L 1.953125 -0.484375 L -14.71875 -68.109375 L 16.609375 -76.875 C 19.609375 -77.613281 22.421875 -78 25.046875 -78.03125 C 27.628906 -77.96875 30.003906 -77.472656 32.171875 -76.546875 C 34.273438 -75.617188 36.125 -74.171875 37.71875 -72.203125 C 39.320312 -70.242188 40.640625 -67.695312 41.671875 -64.5625 L 42.6875 -60.96875 C 43.195312 -58.875 43.414062 -56.84375 43.34375 -54.875 C 43.28125 -52.863281 42.878906 -51 42.140625 -49.28125 C 41.378906 -47.5625 40.253906 -46.066406 38.765625 -44.796875 C 37.210938 -43.453125 35.289062 -42.390625 33 -41.609375 C 36.707031 -42.316406 39.726562 -42.269531 42.0625 -41.46875 C 44.414062 -40.664062 46.4375 -39.117188 48.125 -36.828125 C 49.738281 -34.441406 51.148438 -31.351562 52.359375 -27.5625 C 53.585938 -23.707031 54.851562 -19.132812 56.15625 -13.84375 Z M 7.453125 -56.640625 L 11.578125 -39.875 L 19.125 -41.734375 C 19.457031 -41.816406 19.929688 -42.003906 20.546875 -42.296875 C 21.191406 -42.515625 21.789062 -42.898438 22.34375 -43.453125 C 22.914062 -43.941406 23.367188 -44.644531 23.703125 -45.5625 C 23.984375 -46.394531 23.972656 -47.4375 23.671875 -48.6875 L 21.921875 -55.734375 C 21.441406 -57.410156 20.707031 -58.546875 19.71875 -59.140625 C 18.757812 -59.671875 17.625 -59.773438 16.3125 -59.453125 Z M 7.453125 -56.640625 "/></g></g></g></svg>